<?xml version="1.0" encoding="utf-8"?>
<!-- Generated by IcoMoon.io -->
<!DOCTYPE svg PUBLIC "-//W3C//DTD SVG 1.1//EN" "http://www.w3.org/Graphics/SVG/1.1/DTD/svg11.dtd">
<svg version="1.1" xmlns="http://www.w3.org/2000/svg" xmlns:xlink="http://www.w3.org/1999/xlink" width="32" height="32" viewBox="0 0 32 32">
<g>
</g>
	<path d="M29.938 13.938q-0.469 0.5-0.969 1.063t-1.266 1.5-1.234 1.875-0.469 1.625q0 0.844-2.922 1.422t-7.078 0.578-7.078-0.578-2.922-1.422q0-0.906-0.844-2.266t-1.578-2.188-1.453-1.547q-2.125-2.063-2.125-5 0-2.906 2.047-4.953t4.953-2.047q0.719 0 1.5 0.156-0.5 1.281-0.5 2.844 0 3.344 2.063 5.563-0.063-1.688-0.063-3.563 0-2.906 1.75-4.953t4.25-2.047 4.25 2.047 1.75 4.953q0 1.906-0.063 3.563 2.063-2.219 2.063-5.563 0-1.563-0.5-2.844 0.781-0.156 1.5-0.156 2.906 0 4.953 2.047t2.047 4.953-2.063 4.938zM15.984 24q4.141 0 7.078-0.594t2.938-1.406v8q0 0.813-2.938 1.406t-7.078 0.594-7.063-0.594-2.922-1.406v-8q0 0.844 2.922 1.422t7.063 0.578z" fill="#000000" />
</svg>
